<svg height="512" viewBox="0 0 64 64" width="512" xmlns="http://www.w3.org/2000/svg"><path d="m11.06 29h33.94l9.28-9.28-16.97-16.97z" fill="#5eac24"/><path d="m46.51 21.84a2.994 2.994 0 0 1 0-4.25l-7.07-7.07a2.994 2.994 0 0 1 -4.25 0l-15.47 15.48-2.91 2.91a.647.647 0 0 1 .08.09h11.33c-.04-.03 6.91-.03 6.87 0h4.26l3-3z" fill="#ebfec0"/><path d="m3.16 30.06-.16-.06v27a4 4 0 0 0 4 4h52v-28h-52a3.988 3.988 0 0 1 -3.84-2.94z" fill="#a97c50"/><path d="m12 58a4 4 0 0 1 -4-4v-21h-1a3.988 3.988 0 0 1 -3.84-2.94l-.16-1.06v28a4 4 0 0 0 4 4h52v-3z" fill="#8b5e3c"/><path d="m36.62 26a5 5 0 1 0 -9.92 0 4.9 4.9 0 0 0 1.42 2.91.9.9 0 0 0 .1.09h6.87a.9.9 0 0 0 .1-.09 4.911 4.911 0 0 0 1.43-2.91z" fill="#5eac24"/><path d="m45 29h-33.94l3-3 1-1h-8.06a4 4 0 0 0 0 8h48v-4z" fill="#8b5e3c"/><path d="m6 29a3.995 3.995 0 0 1 4-4h-3a4 4 0 0 0 0 8h3a4 4 0 0 1 -4-4z" fill="#754c29"/><path d="m45 29h10v-4h-6l-1 1z" fill="#8b5e3c"/><path d="m61 43v8h-10a4 4 0 0 1 0-8z" fill="#754c29"/><circle cx="51" cy="47" fill="#ffb655" r="1"/><path d="m61 42h-1v-9a1 1 0 0 0 -1-1h-3v-7a1 1 0 0 0 -1-1h-3.586l3.573-3.573a1 1 0 0 0 0-1.414l-16.97-16.97a1 1 0 0 0 -1.414 0l-21.957 21.957h-7.646a4.995 4.995 0 0 0 -5 5v28a5.006 5.006 0 0 0 5 5h52a1 1 0 0 0 1-1v-9h1a1 1 0 0 0 1-1v-8a1 1 0 0 0 -1-1zm-7-16v2h-6.586l2-2zm-16.69-21.836 15.556 15.556-4.572 4.572-3.708 3.708h-2.822l5.453-5.453a1 1 0 0 0 0-1.414 1.984 1.984 0 0 1 0-2.836 1 1 0 0 0 0-1.414l-7.07-7.07a1 1 0 0 0 -1.414 0 2.042 2.042 0 0 1 -2.836 0 1.029 1.029 0 0 0 -1.414 0l-18.177 18.187h-2.832l2.292-2.292zm-.256 23.836a5.991 5.991 0 0 0 -1.154-6.866 6.005 6.005 0 0 0 -9.643 6.866h-7.124l16.145-16.153a4.077 4.077 0 0 0 4.075 0l5.832 5.832a4.02 4.02 0 0 0 0 4.071l-6.249 6.25zm-8.4 0a3.885 3.885 0 0 1 -.961-2.127 3.959 3.959 0 0 1 1.137-3.328 4.077 4.077 0 0 1 5.657 0 3.944 3.944 0 0 1 1.141 3.329 3.892 3.892 0 0 1 -.966 2.126zm-23.782-1.118a3.018 3.018 0 0 1 2.128-.882h5.646l-2 2h-1.646a1 1 0 0 0 0 2h45v2h-47a3 3 0 0 1 -2.128-5.118zm53.128 33.118h-51a3 3 0 0 1 -3-3v-24.026a4.948 4.948 0 0 0 3 1.026h51v8h-7a5 5 0 0 0 0 10h7zm2-10h-9a3 3 0 0 1 0-6h9z"/><circle cx="51" cy="47" r="2"/></svg>